<svg aria-hidden="true" style="position: absolute; width: 0; height: 0; overflow: hidden;" version="1.1" xmlns="http://www.w3.org/2000/svg" xmlns:xlink="http://www.w3.org/1999/xlink">
<defs>
<symbol id="icon-heart" viewBox="0 0 32 32">
<path   stroke-linejoin="round" stroke-linecap="round" stroke-miterlimit="4" stroke-width="2.6667" d="M27.787 6.147c-0.681-0.681-1.49-1.222-2.38-1.591s-1.844-0.559-2.807-0.559c-0.963 0-1.917 0.19-2.807 0.559s-1.698 0.909-2.379 1.591l-1.413 1.413-1.413-1.413c-1.376-1.376-3.241-2.148-5.187-2.148s-3.811 0.773-5.187 2.148c-1.376 1.376-2.148 3.241-2.148 5.187s0.773 3.811 2.148 5.187l11.787 11.787 11.787-11.787c0.681-0.681 1.222-1.49 1.591-2.38s0.558-1.844 0.558-2.807-0.19-1.917-0.558-2.807c-0.369-0.89-0.909-1.699-1.591-2.38z"></path>
</symbol>
<symbol id="icon-close" viewBox="0 0 32 32">
<path stroke-linejoin="round" stroke-linecap="round" stroke-miterlimit="4" stroke-width="2.4" d="M24 8l-16 16"></path>
<path stroke-linejoin="round" stroke-linecap="round" stroke-miterlimit="4" stroke-width="2.4" d="M8 8l16 16"></path>
</symbol>
<symbol id="icon-cup" viewBox="0 0 32 32">
<path fill="#f5f9ff" style="fill: var(--color2, #f5f9ff)" d="M15.61 0h0.781c8.621 0 15.61 6.989 15.61 15.61v0.781c0 8.621-6.989 15.61-15.61 15.61h-0.78c-8.621 0-15.61-6.989-15.61-15.61v-0.78c0-8.621 6.989-15.61 15.61-15.61z"></path>
<path fill="#61b7fe" style="fill: var(--color3, #61b7fe)" d="M16 25.366c5.173 0 9.366-4.193 9.366-9.366s-4.193-9.366-9.366-9.366-9.366 4.193-9.366 9.366c0 5.173 4.193 9.366 9.366 9.366z"></path>
<path fill="#ffc926" style="fill: var(--color4, #ffc926)" d="M15.275 18.685c-0.115 0-0.115 0.437 0 0.437h1.838c0.115 0 0.115-0.437-0.002-0.438 0 0-0.542-0.272-0.573-0.581-0.024-0.24 0.23-0.7 0.23-0.7-0.459 0.146-0.689 0.146-1.149 0 0 0 0.26 0.464 0.228 0.703-0.047 0.345-0.572 0.579-0.572 0.579h0z"></path>
<path fill="#ffc926" style="fill: var(--color4, #ffc926)" d="M13.268 11.287c0 3.422 1.171 6.274 2.927 6.274s2.927-2.852 2.927-6.274h-5.854zM15.259 19.121h1.873c0 1.041 0.234 1.041 0.82 1.561h-3.512c0.585-0.52 0.82-0.52 0.82-1.561z"></path>
<path fill="#ffc926" style="fill: var(--color4, #ffc926)" d="M17.962 20.683h-3.523v0.78h3.523v-0.78z"></path>
<path fill="#ffc926" style="fill: var(--color4, #ffc926)" d="M18.283 21.463h-4.176c-0.032 0-0.058 0.026-0.058 0.058v0.664c0 0.032 0.026 0.058 0.058 0.058h4.176c0.032 0 0.058-0.026 0.058-0.058v-0.664c0-0.032-0.026-0.058-0.058-0.058z"></path>
<path fill="#ffc926" style="fill: var(--color4, #ffc926)" d="M13.298 10.927h-2.762c0 3.659 2.615 5.417 4.245 5.854l-1.483-5.854zM14.135 15.883c-0.75-0.433-2.701-2.029-2.701-4.176h1.864l0.837 4.176zM19.014 10.927h2.84c0 3.659-2.615 5.417-4.245 5.854l1.405-5.854zM18.255 15.883c0.75-0.433 2.701-2.029 2.701-4.176h-1.942z"></path>
<path fill="#ffc926" style="fill: var(--color4, #ffc926)" d="M13.268 10.146v1.141h5.854v-1.141h-5.854z"></path>
</symbol>
<symbol id="icon-discount" viewBox="0 0 32 32">
<path fill="#f5f9ff" style="fill: var(--color2, #f5f9ff)" d="M15.61 0h0.781c8.621 0 15.61 6.989 15.61 15.61v0.781c0 8.621-6.989 15.61-15.61 15.61h-0.78c-8.621 0-15.61-6.989-15.61-15.61v-0.78c0-8.621 6.989-15.61 15.61-15.61z"></path>
<path fill="#ffc926" style="fill: var(--color4, #ffc926)" d="M17.722 24.619l-1.374-0.783c-0.106-0.060-0.225-0.092-0.347-0.092s-0.241 0.032-0.347 0.092l-1.374 0.783c-0.107 0.061-0.227 0.092-0.35 0.092s-0.243-0.033-0.349-0.095c-0.106-0.062-0.194-0.15-0.255-0.256s-0.093-0.227-0.093-0.35v-7.033h5.54v7.033c0 0.123-0.032 0.243-0.093 0.35s-0.149 0.195-0.255 0.256c-0.106 0.062-0.227 0.094-0.349 0.095s-0.243-0.031-0.35-0.092z"></path>
<path fill="#fddd5a" style="fill: var(--color5, #fddd5a)" d="M23.233 14.257c0 0.742-0.802 1.349-1.019 2.019-0.225 0.694 0.059 1.655-0.362 2.233-0.425 0.584-1.429 0.608-2.013 1.033-0.578 0.421-0.909 1.37-1.604 1.596-0.67 0.218-1.493-0.349-2.236-0.349s-1.566 0.567-2.236 0.349c-0.694-0.225-1.026-1.175-1.604-1.596-0.584-0.425-1.588-0.449-2.013-1.033-0.421-0.578-0.136-1.539-0.362-2.233-0.218-0.67-1.019-1.277-1.019-2.019s0.802-1.349 1.019-2.019c0.225-0.694-0.059-1.655 0.362-2.233 0.425-0.584 1.429-0.608 2.013-1.033 0.578-0.421 0.909-1.37 1.604-1.596 0.67-0.218 1.493 0.349 2.236 0.349s1.566-0.567 2.236-0.349c0.694 0.225 1.026 1.175 1.604 1.596 0.584 0.425 1.588 0.449 2.013 1.033 0.421 0.578 0.137 1.538 0.362 2.233 0.218 0.67 1.019 1.277 1.019 2.019z"></path>
<path fill="#61b7fe" style="fill: var(--color3, #61b7fe)" d="M23.233 14.257c0 0.742-0.802 1.349-1.019 2.019-0.225 0.694 0.059 1.655-0.362 2.233-0.425 0.584-1.429 0.608-2.013 1.033-0.578 0.421-0.909 1.37-1.604 1.596-0.67 0.218-1.493-0.349-2.236-0.349s-1.566 0.567-2.236 0.349c-0.694-0.225-1.026-1.175-1.604-1.596-0.584-0.425-1.588-0.449-2.013-1.033-0.421-0.578-0.136-1.539-0.362-2.233-0.218-0.67-1.019-1.277-1.019-2.019s0.802-1.349 1.019-2.019c0.225-0.694-0.059-1.655 0.362-2.233 0.425-0.584 1.429-0.608 2.013-1.033 0.578-0.421 0.909-1.37 1.604-1.596 0.67-0.218 1.493 0.349 2.236 0.349s1.566-0.567 2.236-0.349c0.694 0.225 1.026 1.175 1.604 1.596 0.584 0.425 1.588 0.449 2.013 1.033 0.421 0.578 0.137 1.538 0.362 2.233 0.218 0.67 1.019 1.277 1.019 2.019z"></path>
<path fill="#eb304a" style="fill: var(--color6, #eb304a)" d="M16 19.457c2.872 0 5.199-2.328 5.199-5.199s-2.328-5.199-5.199-5.199c-2.872 0-5.199 2.328-5.199 5.199s2.328 5.199 5.199 5.199z"></path>
<path fill="#ffc926" style="fill: var(--color4, #ffc926)" d="M16 19.457c2.872 0 5.199-2.328 5.199-5.199s-2.328-5.199-5.199-5.199c-2.872 0-5.199 2.328-5.199 5.199s2.328 5.199 5.199 5.199z"></path>
<path fill="#fff" style="fill: var(--color1, #fff)" d="M14.257 16.262c-0.052 0-0.103-0.015-0.146-0.044s-0.077-0.070-0.097-0.118c-0.020-0.048-0.025-0.101-0.015-0.152s0.035-0.098 0.072-0.135l3.694-3.694c0.049-0.049 0.116-0.077 0.186-0.077s0.137 0.028 0.186 0.077c0.049 0.049 0.077 0.116 0.077 0.186s-0.028 0.137-0.077 0.186l-3.694 3.694c-0.024 0.024-0.053 0.044-0.085 0.057s-0.066 0.020-0.101 0.020zM17.214 16.471c-0.231-0-0.455-0.080-0.633-0.227s-0.301-0.351-0.346-0.577-0.010-0.462 0.099-0.665c0.109-0.204 0.285-0.363 0.499-0.451s0.451-0.1 0.672-0.033 0.412 0.209 0.54 0.401c0.128 0.192 0.186 0.423 0.163 0.653s-0.125 0.445-0.288 0.608c-0.093 0.093-0.203 0.166-0.324 0.217s-0.251 0.076-0.382 0.076zM17.214 14.999c-0.078 0-0.154 0.019-0.223 0.056s-0.127 0.090-0.17 0.155-0.070 0.139-0.078 0.217c-0.008 0.077 0.004 0.156 0.034 0.228s0.077 0.135 0.137 0.185c0.060 0.049 0.132 0.083 0.208 0.098s0.155 0.011 0.23-0.011c0.074-0.023 0.142-0.063 0.197-0.118h0c0.066-0.066 0.111-0.151 0.13-0.242s0.009-0.187-0.027-0.274c-0.036-0.087-0.097-0.16-0.174-0.212s-0.169-0.080-0.263-0.080v0zM14.784 14.041c-0.231 0-0.455-0.080-0.634-0.227s-0.301-0.351-0.346-0.578-0.010-0.462 0.099-0.666c0.109-0.204 0.285-0.364 0.499-0.452s0.451-0.1 0.673-0.033c0.221 0.067 0.412 0.209 0.541 0.401s0.186 0.423 0.164 0.653-0.124 0.445-0.288 0.609c-0.093 0.093-0.203 0.167-0.324 0.217s-0.251 0.076-0.383 0.076zM14.784 12.569c-0.078 0-0.155 0.019-0.223 0.056s-0.127 0.090-0.171 0.155c-0.043 0.065-0.070 0.139-0.078 0.217s0.004 0.156 0.034 0.228c0.030 0.072 0.077 0.135 0.137 0.185s0.132 0.083 0.208 0.098 0.155 0.011 0.23-0.011c0.075-0.023 0.142-0.063 0.197-0.118v-0c0.066-0.066 0.111-0.151 0.13-0.242s0.009-0.187-0.027-0.274c-0.036-0.087-0.097-0.16-0.174-0.212s-0.169-0.080-0.263-0.080z"></path>
</symbol>
<symbol id="icon-diversity" viewBox="0 0 32 32">
<path fill="#f5f9ff" style="fill: var(--color2, #f5f9ff)" d="M15.61 0h0.781c8.621 0 15.61 6.989 15.61 15.61v0.781c0 8.621-6.989 15.61-15.61 15.61h-0.78c-8.621 0-15.61-6.989-15.61-15.61v-0.78c0-8.621 6.989-15.61 15.61-15.61z"></path>
<path fill="#61b7fe" style="fill: var(--color3, #61b7fe); stroke: var(--color3, #61b7fe)" stroke="#61b7fe" stroke-linejoin="round" stroke-linecap="butt" stroke-miterlimit="4" stroke-width="0.5854" d="M15.608 9.547l-7.668 7.664c-0.087 0.104-0.139 0.239-0.139 0.386 0 0.184 0.082 0.349 0.212 0.46l0.001 0.001 5.538 5.538c0.112 0.131 0.277 0.213 0.461 0.213 0.147 0 0.282-0.053 0.387-0.14l-0.001 0.001 7.664-7.668c0.289-0.294 0.485-0.68 0.541-1.11l0.001-0.010 0.808-5.904c0.001-0.017 0.002-0.036 0.002-0.056 0-0.401-0.325-0.727-0.727-0.727-0.020 0-0.039 0.001-0.059 0.002l0.003-0-5.908 0.812c-0.438 0.057-0.822 0.252-1.117 0.539l0-0z"></path>
<path fill="#ffc926" style="fill: var(--color4, #ffc926)" d="M14.648 12.548l-3.863 3.863c-0.141 0.141-0.229 0.336-0.229 0.552s0.087 0.411 0.229 0.552l3.312 3.311c0.141 0.141 0.336 0.229 0.552 0.229s0.411-0.087 0.552-0.229l3.863-3.863c0.141-0.141 0.229-0.336 0.229-0.552s-0.087-0.411-0.229-0.552l-3.312-3.312c-0.141-0.141-0.336-0.229-0.552-0.229s-0.411 0.087-0.552 0.229v0z"></path>
<path fill="#fff" style="fill: var(--color1, #fff); stroke: var(--color1, #fff)" stroke="#fff" stroke-linejoin="round" stroke-linecap="butt" stroke-miterlimit="4" stroke-width="0.7805" d="M16.065 17.827h-1.986c-1.604 0-1.604-1.986 0-1.986 0-1.604 1.986-1.604 1.986 0v1.986z"></path>
<path fill="#fff" style="fill: var(--color1, #fff)" d="M21.268 11.719c0.178-0.177 0.289-0.422 0.289-0.693 0-0.539-0.437-0.976-0.976-0.976-0.271 0-0.516 0.11-0.693 0.289l-0 0c-0.175 0.176-0.283 0.419-0.283 0.687 0 0.539 0.437 0.976 0.976 0.976 0.268 0 0.511-0.108 0.687-0.283l-0 0z"></path>
</symbol>
</defs>
</svg>
